<svg width="41" height="40" viewBox="0 0 41 40" fill="none" xmlns="http://www.w3.org/2000/svg">
<rect x="0.5" width="40" height="40" rx="12" fill="#F0F0F0"/>
<path d="M19.6808 12.345C19.7545 11.9506 20.0988 11.6647 20.5 11.6647C20.9012 11.6647 21.2455 11.9506 21.3192 12.345L22.195 16.9767C22.3223 17.6506 22.8494 18.1777 23.5233 18.305L28.155 19.1808C28.5494 19.2545 28.8353 19.5988 28.8353 20C28.8353 20.4012 28.5494 20.7455 28.155 20.8192L23.5233 21.695C22.8494 21.8223 22.3223 22.3494 22.195 23.0233L21.3192 27.655C21.2455 28.0494 20.9012 28.3353 20.5 28.3353C20.0988 28.3353 19.7545 28.0494 19.6808 27.655L18.805 23.0233C18.6777 22.3494 18.1506 21.8223 17.4767 21.695L12.845 20.8192C12.4506 20.7455 12.1647 20.4012 12.1647 20C12.1647 19.5988 12.4506 19.2545 12.845 19.1808L17.4767 18.305C18.1506 18.1777 18.6777 17.6506 18.805 16.9767" stroke="#054B2F" stroke-width="1.66667" stroke-linecap="round" stroke-linejoin="round"/>
</svg>
