<svg xmlns="http://www.w3.org/2000/svg" xmlns:xlink="http://www.w3.org/1999/xlink" width="800" zoomAndPan="magnify" viewBox="0 0 600 599.999999" height="800" preserveAspectRatio="xMidYMid meet" version="1.2"><defs/><g id="664d977c7c"><g style="fill:#1e2a47;fill-opacity:1;"><g transform="translate(148.14024, 283.107674)"><path style="stroke:none" d="M 20.75 0.59375 C 17.207031 0.59375 14.003906 -0.171875 11.140625 -1.703125 C 8.285156 -3.242188 6.035156 -5.378906 4.390625 -8.109375 C 2.753906 -10.847656 1.9375 -13.9375 1.9375 -17.375 C 1.9375 -20.820312 2.753906 -23.910156 4.390625 -26.640625 C 6.035156 -29.367188 8.285156 -31.503906 11.140625 -33.046875 C 14.003906 -34.585938 17.226562 -35.359375 20.8125 -35.359375 C 23.820312 -35.359375 26.539062 -34.828125 28.96875 -33.765625 C 31.40625 -32.703125 33.453125 -31.179688 35.109375 -29.203125 L 29.9375 -24.4375 C 27.59375 -27.144531 24.679688 -28.5 21.203125 -28.5 C 19.046875 -28.5 17.125 -28.023438 15.4375 -27.078125 C 13.75 -26.140625 12.429688 -24.828125 11.484375 -23.140625 C 10.546875 -21.453125 10.078125 -19.53125 10.078125 -17.375 C 10.078125 -15.226562 10.546875 -13.3125 11.484375 -11.625 C 12.429688 -9.9375 13.75 -8.617188 15.4375 -7.671875 C 17.125 -6.722656 19.046875 -6.25 21.203125 -6.25 C 24.679688 -6.25 27.59375 -7.625 29.9375 -10.375 L 35.109375 -5.609375 C 33.453125 -3.585938 31.398438 -2.046875 28.953125 -0.984375 C 26.503906 0.0664062 23.769531 0.59375 20.75 0.59375 Z M 20.75 0.59375 "/></g></g><g style="fill:#1e2a47;fill-opacity:1;"><g transform="translate(184.342278, 283.107674)"><path style="stroke:none" d="M 14.34375 -27.109375 C 18.488281 -27.109375 21.671875 -26.125 23.890625 -24.15625 C 26.109375 -22.1875 27.21875 -19.21875 27.21875 -15.25 L 27.21875 0 L 19.96875 0 L 19.96875 -3.328125 C 18.507812 -0.847656 15.789062 0.390625 11.8125 0.390625 C 9.757812 0.390625 7.976562 0.046875 6.46875 -0.640625 C 4.96875 -1.335938 3.820312 -2.296875 3.03125 -3.515625 C 2.238281 -4.742188 1.84375 -6.140625 1.84375 -7.703125 C 1.84375 -10.179688 2.773438 -12.128906 4.640625 -13.546875 C 6.515625 -14.972656 9.40625 -15.6875 13.3125 -15.6875 L 19.46875 -15.6875 C 19.46875 -17.375 18.953125 -18.671875 17.921875 -19.578125 C 16.898438 -20.492188 15.363281 -20.953125 13.3125 -20.953125 C 11.882812 -20.953125 10.484375 -20.726562 9.109375 -20.28125 C 7.734375 -19.832031 6.566406 -19.226562 5.609375 -18.46875 L 2.828125 -23.890625 C 4.285156 -24.910156 6.03125 -25.703125 8.0625 -26.265625 C 10.101562 -26.828125 12.195312 -27.109375 14.34375 -27.109375 Z M 13.75 -4.8125 C 15.070312 -4.8125 16.242188 -5.117188 17.265625 -5.734375 C 18.296875 -6.347656 19.03125 -7.25 19.46875 -8.4375 L 19.46875 -11.171875 L 14.15625 -11.171875 C 10.976562 -11.171875 9.390625 -10.128906 9.390625 -8.046875 C 9.390625 -7.046875 9.773438 -6.253906 10.546875 -5.671875 C 11.328125 -5.097656 12.394531 -4.8125 13.75 -4.8125 Z M 13.75 -4.8125 "/></g></g><g style="fill:#1e2a47;fill-opacity:1;"><g transform="translate(214.982417, 283.107674)"><path style="stroke:none" d="M 10.96875 -23.1875 C 11.894531 -24.476562 13.144531 -25.453125 14.71875 -26.109375 C 16.289062 -26.773438 18.101562 -27.109375 20.15625 -27.109375 L 20.15625 -19.96875 C 19.300781 -20.03125 18.722656 -20.0625 18.421875 -20.0625 C 16.203125 -20.0625 14.460938 -19.441406 13.203125 -18.203125 C 11.953125 -16.960938 11.328125 -15.097656 11.328125 -12.609375 L 11.328125 0 L 3.578125 0 L 3.578125 -26.71875 L 10.96875 -26.71875 Z M 10.96875 -23.1875 "/></g></g><g style="fill:#1e2a47;fill-opacity:1;"><g transform="translate(237.130755, 283.107674)"><path style="stroke:none" d="M 20.8125 -1.296875 C 20.039062 -0.734375 19.101562 -0.3125 18 -0.03125 C 16.894531 0.25 15.726562 0.390625 14.5 0.390625 C 11.320312 0.390625 8.863281 -0.414062 7.125 -2.03125 C 5.382812 -3.65625 4.515625 -6.039062 4.515625 -9.1875 L 4.515625 -20.15625 L 0.390625 -20.15625 L 0.390625 -26.125 L 4.515625 -26.125 L 4.515625 -32.625 L 12.265625 -32.625 L 12.265625 -26.125 L 18.921875 -26.125 L 18.921875 -20.15625 L 12.265625 -20.15625 L 12.265625 -9.28125 C 12.265625 -8.15625 12.550781 -7.285156 13.125 -6.671875 C 13.707031 -6.066406 14.53125 -5.765625 15.59375 -5.765625 C 16.8125 -5.765625 17.851562 -6.09375 18.71875 -6.75 Z M 20.8125 -1.296875 "/></g></g><g style="fill:#1e2a47;fill-opacity:1;"><g transform="translate(258.534152, 283.107674)"><path style="stroke:none" d="M 27.90625 -6.546875 L 27.90625 0 L 1.640625 0 L 1.640625 -5.21875 L 15.046875 -17.875 C 16.472656 -19.226562 17.429688 -20.394531 17.921875 -21.375 C 18.421875 -22.351562 18.671875 -23.320312 18.671875 -24.28125 C 18.671875 -25.675781 18.195312 -26.742188 17.25 -27.484375 C 16.3125 -28.234375 14.929688 -28.609375 13.109375 -28.609375 C 11.585938 -28.609375 10.210938 -28.316406 8.984375 -27.734375 C 7.765625 -27.148438 6.738281 -26.28125 5.90625 -25.125 L 0.046875 -28.90625 C 1.398438 -30.914062 3.269531 -32.492188 5.65625 -33.640625 C 8.039062 -34.785156 10.773438 -35.359375 13.859375 -35.359375 C 16.441406 -35.359375 18.695312 -34.9375 20.625 -34.09375 C 22.5625 -33.25 24.066406 -32.054688 25.140625 -30.515625 C 26.222656 -28.972656 26.765625 -27.160156 26.765625 -25.078125 C 26.765625 -23.191406 26.363281 -21.421875 25.5625 -19.765625 C 24.769531 -18.109375 23.234375 -16.222656 20.953125 -14.109375 L 12.953125 -6.546875 Z M 27.90625 -6.546875 "/></g></g><g style="fill:#469ebd;fill-opacity:1;"><g transform="translate(287.835793, 283.107674)"><path style="stroke:none" d="M 19.171875 -34.765625 C 22.242188 -34.765625 24.914062 -34.25 27.1875 -33.21875 C 29.457031 -32.195312 31.203125 -30.738281 32.421875 -28.84375 C 33.648438 -26.957031 34.265625 -24.722656 34.265625 -22.140625 C 34.265625 -19.597656 33.648438 -17.375 32.421875 -15.46875 C 31.203125 -13.5625 29.457031 -12.101562 27.1875 -11.09375 C 24.914062 -10.082031 22.242188 -9.578125 19.171875 -9.578125 L 12.171875 -9.578125 L 12.171875 0 L 4.125 0 L 4.125 -34.765625 Z M 18.71875 -16.140625 C 21.132812 -16.140625 22.972656 -16.660156 24.234375 -17.703125 C 25.492188 -18.742188 26.125 -20.222656 26.125 -22.140625 C 26.125 -24.097656 25.492188 -25.597656 24.234375 -26.640625 C 22.972656 -27.679688 21.132812 -28.203125 18.71875 -28.203125 L 12.171875 -28.203125 L 12.171875 -16.140625 Z M 18.71875 -16.140625 "/></g></g><g style="fill:#469ebd;fill-opacity:1;"><g transform="translate(321.952025, 283.107674)"><path style="stroke:none" d="M 27.015625 -7.453125 L 10.875 -7.453125 L 7.796875 0 L -0.453125 0 L 15.046875 -34.765625 L 22.984375 -34.765625 L 38.53125 0 L 30.09375 0 Z M 24.484375 -13.5625 L 18.96875 -26.859375 L 13.453125 -13.5625 Z M 24.484375 -13.5625 "/></g></g><g style="fill:#469ebd;fill-opacity:1;"><g transform="translate(357.856009, 283.107674)"><path style="stroke:none" d="M 20.8125 -12.3125 L 20.8125 0 L 12.765625 0 L 12.765625 -12.40625 L -0.6875 -34.765625 L 7.84375 -34.765625 L 17.125 -19.3125 L 26.421875 -34.765625 L 34.3125 -34.765625 Z M 20.8125 -12.3125 "/></g></g></g></svg>