<svg xmlns="http://www.w3.org/2000/svg" xmlns:xlink="http://www.w3.org/1999/xlink" width="500" zoomAndPan="magnify" viewBox="0 0 375 374.999991" height="500" preserveAspectRatio="xMidYMid meet" version="1.2"><defs/><g id="bae9c88c74"><g style="fill:#1e2a47;fill-opacity:0.4;"><g transform="translate(112.842634, 181.461966)"><path style="stroke:none" d="M 12.96875 0.375 C 10.757812 0.375 8.757812 -0.101562 6.96875 -1.0625 C 5.175781 -2.03125 3.765625 -3.367188 2.734375 -5.078125 C 1.710938 -6.785156 1.203125 -8.710938 1.203125 -10.859375 C 1.203125 -13.015625 1.710938 -14.941406 2.734375 -16.640625 C 3.765625 -18.347656 5.175781 -19.679688 6.96875 -20.640625 C 8.757812 -21.609375 10.769531 -22.09375 13 -22.09375 C 14.882812 -22.09375 16.585938 -21.757812 18.109375 -21.09375 C 19.628906 -20.4375 20.90625 -19.488281 21.9375 -18.25 L 18.71875 -15.265625 C 17.25 -16.960938 15.425781 -17.8125 13.25 -17.8125 C 11.90625 -17.8125 10.703125 -17.515625 9.640625 -16.921875 C 8.585938 -16.335938 7.765625 -15.515625 7.171875 -14.453125 C 6.585938 -13.398438 6.296875 -12.203125 6.296875 -10.859375 C 6.296875 -9.515625 6.585938 -8.3125 7.171875 -7.25 C 7.765625 -6.195312 8.585938 -5.375 9.640625 -4.78125 C 10.703125 -4.195312 11.90625 -3.90625 13.25 -3.90625 C 15.425781 -3.90625 17.25 -4.765625 18.71875 -6.484375 L 21.9375 -3.5 C 20.90625 -2.238281 19.625 -1.273438 18.09375 -0.609375 C 16.5625 0.046875 14.851562 0.375 12.96875 0.375 Z M 12.96875 0.375 "/></g></g><g style="fill:#1e2a47;fill-opacity:0.4;"><g transform="translate(135.468906, 181.461966)"><path style="stroke:none" d="M 8.96875 -16.9375 C 11.550781 -16.9375 13.535156 -16.320312 14.921875 -15.09375 C 16.304688 -13.863281 17 -12.007812 17 -9.53125 L 17 0 L 12.46875 0 L 12.46875 -2.078125 C 11.5625 -0.523438 9.867188 0.25 7.390625 0.25 C 6.109375 0.25 4.992188 0.03125 4.046875 -0.40625 C 3.109375 -0.84375 2.390625 -1.441406 1.890625 -2.203125 C 1.390625 -2.960938 1.140625 -3.832031 1.140625 -4.8125 C 1.140625 -6.363281 1.722656 -7.582031 2.890625 -8.46875 C 4.066406 -9.363281 5.875 -9.8125 8.3125 -9.8125 L 12.171875 -9.8125 C 12.171875 -10.863281 11.847656 -11.671875 11.203125 -12.234375 C 10.554688 -12.804688 9.59375 -13.09375 8.3125 -13.09375 C 7.425781 -13.09375 6.550781 -12.953125 5.6875 -12.671875 C 4.832031 -12.390625 4.101562 -12.015625 3.5 -11.546875 L 1.765625 -14.921875 C 2.679688 -15.566406 3.773438 -16.0625 5.046875 -16.40625 C 6.316406 -16.757812 7.625 -16.9375 8.96875 -16.9375 Z M 8.59375 -3.015625 C 9.425781 -3.015625 10.160156 -3.203125 10.796875 -3.578125 C 11.441406 -3.960938 11.898438 -4.53125 12.171875 -5.28125 L 12.171875 -6.984375 L 8.84375 -6.984375 C 6.851562 -6.984375 5.859375 -6.332031 5.859375 -5.03125 C 5.859375 -4.40625 6.101562 -3.910156 6.59375 -3.546875 C 7.082031 -3.191406 7.75 -3.015625 8.59375 -3.015625 Z M 8.59375 -3.015625 "/></g></g><g style="fill:#1e2a47;fill-opacity:0.4;"><g transform="translate(154.618992, 181.461966)"><path style="stroke:none" d="M 6.859375 -14.484375 C 7.441406 -15.296875 8.222656 -15.90625 9.203125 -16.3125 C 10.179688 -16.726562 11.3125 -16.9375 12.59375 -16.9375 L 12.59375 -12.46875 C 12.0625 -12.507812 11.703125 -12.53125 11.515625 -12.53125 C 10.128906 -12.53125 9.039062 -12.140625 8.25 -11.359375 C 7.46875 -10.585938 7.078125 -9.425781 7.078125 -7.875 L 7.078125 0 L 2.234375 0 L 2.234375 -16.6875 L 6.859375 -16.6875 Z M 6.859375 -14.484375 "/></g></g><g style="fill:#1e2a47;fill-opacity:0.4;"><g transform="translate(168.461703, 181.461966)"><path style="stroke:none" d="M 13 -0.8125 C 12.519531 -0.457031 11.929688 -0.191406 11.234375 -0.015625 C 10.546875 0.160156 9.820312 0.25 9.0625 0.25 C 7.070312 0.25 5.535156 -0.253906 4.453125 -1.265625 C 3.367188 -2.285156 2.828125 -3.773438 2.828125 -5.734375 L 2.828125 -12.59375 L 0.25 -12.59375 L 0.25 -16.328125 L 2.828125 -16.328125 L 2.828125 -20.390625 L 7.671875 -20.390625 L 7.671875 -16.328125 L 11.828125 -16.328125 L 11.828125 -12.59375 L 7.671875 -12.59375 L 7.671875 -5.796875 C 7.671875 -5.097656 7.847656 -4.554688 8.203125 -4.171875 C 8.566406 -3.785156 9.082031 -3.59375 9.75 -3.59375 C 10.507812 -3.59375 11.160156 -3.800781 11.703125 -4.21875 Z M 13 -0.8125 "/></g></g><g style="fill:#1e2a47;fill-opacity:0.4;"><g transform="translate(181.838825, 181.461966)"><path style="stroke:none" d="M 17.4375 -4.09375 L 17.4375 0 L 1.03125 0 L 1.03125 -3.265625 L 9.40625 -11.171875 C 10.289062 -12.015625 10.890625 -12.742188 11.203125 -13.359375 C 11.515625 -13.972656 11.671875 -14.578125 11.671875 -15.171875 C 11.671875 -16.046875 11.375 -16.710938 10.78125 -17.171875 C 10.195312 -17.640625 9.332031 -17.875 8.1875 -17.875 C 7.238281 -17.875 6.378906 -17.691406 5.609375 -17.328125 C 4.847656 -16.960938 4.207031 -16.421875 3.6875 -15.703125 L 0.03125 -18.0625 C 0.875 -19.320312 2.039062 -20.304688 3.53125 -21.015625 C 5.019531 -21.734375 6.726562 -22.09375 8.65625 -22.09375 C 10.269531 -22.09375 11.679688 -21.828125 12.890625 -21.296875 C 14.097656 -20.773438 15.035156 -20.03125 15.703125 -19.0625 C 16.378906 -18.101562 16.71875 -16.972656 16.71875 -15.671875 C 16.71875 -14.492188 16.46875 -13.382812 15.96875 -12.34375 C 15.476562 -11.3125 14.519531 -10.132812 13.09375 -8.8125 L 8.09375 -4.09375 Z M 17.4375 -4.09375 "/></g></g><g style="fill:#1e2a47;fill-opacity:1;"><g transform="translate(111.470786, 180.090109)"><path style="stroke:none" d="M 12.96875 0.375 C 10.757812 0.375 8.757812 -0.101562 6.96875 -1.0625 C 5.175781 -2.03125 3.765625 -3.367188 2.734375 -5.078125 C 1.710938 -6.785156 1.203125 -8.710938 1.203125 -10.859375 C 1.203125 -13.015625 1.710938 -14.941406 2.734375 -16.640625 C 3.765625 -18.347656 5.175781 -19.679688 6.96875 -20.640625 C 8.757812 -21.609375 10.769531 -22.09375 13 -22.09375 C 14.882812 -22.09375 16.585938 -21.757812 18.109375 -21.09375 C 19.628906 -20.4375 20.90625 -19.488281 21.9375 -18.25 L 18.71875 -15.265625 C 17.25 -16.960938 15.425781 -17.8125 13.25 -17.8125 C 11.90625 -17.8125 10.703125 -17.515625 9.640625 -16.921875 C 8.585938 -16.335938 7.765625 -15.515625 7.171875 -14.453125 C 6.585938 -13.398438 6.296875 -12.203125 6.296875 -10.859375 C 6.296875 -9.515625 6.585938 -8.3125 7.171875 -7.25 C 7.765625 -6.195312 8.585938 -5.375 9.640625 -4.78125 C 10.703125 -4.195312 11.90625 -3.90625 13.25 -3.90625 C 15.425781 -3.90625 17.25 -4.765625 18.71875 -6.484375 L 21.9375 -3.5 C 20.90625 -2.238281 19.625 -1.273438 18.09375 -0.609375 C 16.5625 0.046875 14.851562 0.375 12.96875 0.375 Z M 12.96875 0.375 "/></g></g><g style="fill:#1e2a47;fill-opacity:1;"><g transform="translate(134.097059, 180.090109)"><path style="stroke:none" d="M 8.96875 -16.9375 C 11.550781 -16.9375 13.535156 -16.320312 14.921875 -15.09375 C 16.304688 -13.863281 17 -12.007812 17 -9.53125 L 17 0 L 12.46875 0 L 12.46875 -2.078125 C 11.5625 -0.523438 9.867188 0.25 7.390625 0.25 C 6.109375 0.25 4.992188 0.03125 4.046875 -0.40625 C 3.109375 -0.84375 2.390625 -1.441406 1.890625 -2.203125 C 1.390625 -2.960938 1.140625 -3.832031 1.140625 -4.8125 C 1.140625 -6.363281 1.722656 -7.582031 2.890625 -8.46875 C 4.066406 -9.363281 5.875 -9.8125 8.3125 -9.8125 L 12.171875 -9.8125 C 12.171875 -10.863281 11.847656 -11.671875 11.203125 -12.234375 C 10.554688 -12.804688 9.59375 -13.09375 8.3125 -13.09375 C 7.425781 -13.09375 6.550781 -12.953125 5.6875 -12.671875 C 4.832031 -12.390625 4.101562 -12.015625 3.5 -11.546875 L 1.765625 -14.921875 C 2.679688 -15.566406 3.773438 -16.0625 5.046875 -16.40625 C 6.316406 -16.757812 7.625 -16.9375 8.96875 -16.9375 Z M 8.59375 -3.015625 C 9.425781 -3.015625 10.160156 -3.203125 10.796875 -3.578125 C 11.441406 -3.960938 11.898438 -4.53125 12.171875 -5.28125 L 12.171875 -6.984375 L 8.84375 -6.984375 C 6.851562 -6.984375 5.859375 -6.332031 5.859375 -5.03125 C 5.859375 -4.40625 6.101562 -3.910156 6.59375 -3.546875 C 7.082031 -3.191406 7.75 -3.015625 8.59375 -3.015625 Z M 8.59375 -3.015625 "/></g></g><g style="fill:#1e2a47;fill-opacity:1;"><g transform="translate(153.247145, 180.090109)"><path style="stroke:none" d="M 6.859375 -14.484375 C 7.441406 -15.296875 8.222656 -15.90625 9.203125 -16.3125 C 10.179688 -16.726562 11.3125 -16.9375 12.59375 -16.9375 L 12.59375 -12.46875 C 12.0625 -12.507812 11.703125 -12.53125 11.515625 -12.53125 C 10.128906 -12.53125 9.039062 -12.140625 8.25 -11.359375 C 7.46875 -10.585938 7.078125 -9.425781 7.078125 -7.875 L 7.078125 0 L 2.234375 0 L 2.234375 -16.6875 L 6.859375 -16.6875 Z M 6.859375 -14.484375 "/></g></g><g style="fill:#1e2a47;fill-opacity:1;"><g transform="translate(167.089856, 180.090109)"><path style="stroke:none" d="M 13 -0.8125 C 12.519531 -0.457031 11.929688 -0.191406 11.234375 -0.015625 C 10.546875 0.160156 9.820312 0.25 9.0625 0.25 C 7.070312 0.25 5.535156 -0.253906 4.453125 -1.265625 C 3.367188 -2.285156 2.828125 -3.773438 2.828125 -5.734375 L 2.828125 -12.59375 L 0.25 -12.59375 L 0.25 -16.328125 L 2.828125 -16.328125 L 2.828125 -20.390625 L 7.671875 -20.390625 L 7.671875 -16.328125 L 11.828125 -16.328125 L 11.828125 -12.59375 L 7.671875 -12.59375 L 7.671875 -5.796875 C 7.671875 -5.097656 7.847656 -4.554688 8.203125 -4.171875 C 8.566406 -3.785156 9.082031 -3.59375 9.75 -3.59375 C 10.507812 -3.59375 11.160156 -3.800781 11.703125 -4.21875 Z M 13 -0.8125 "/></g></g><g style="fill:#1e2a47;fill-opacity:1;"><g transform="translate(180.466978, 180.090109)"><path style="stroke:none" d="M 17.4375 -4.09375 L 17.4375 0 L 1.03125 0 L 1.03125 -3.265625 L 9.40625 -11.171875 C 10.289062 -12.015625 10.890625 -12.742188 11.203125 -13.359375 C 11.515625 -13.972656 11.671875 -14.578125 11.671875 -15.171875 C 11.671875 -16.046875 11.375 -16.710938 10.78125 -17.171875 C 10.195312 -17.640625 9.332031 -17.875 8.1875 -17.875 C 7.238281 -17.875 6.378906 -17.691406 5.609375 -17.328125 C 4.847656 -16.960938 4.207031 -16.421875 3.6875 -15.703125 L 0.03125 -18.0625 C 0.875 -19.320312 2.039062 -20.304688 3.53125 -21.015625 C 5.019531 -21.734375 6.726562 -22.09375 8.65625 -22.09375 C 10.269531 -22.09375 11.679688 -21.828125 12.890625 -21.296875 C 14.097656 -20.773438 15.035156 -20.03125 15.703125 -19.0625 C 16.378906 -18.101562 16.71875 -16.972656 16.71875 -15.671875 C 16.71875 -14.492188 16.46875 -13.382812 15.96875 -12.34375 C 15.476562 -11.3125 14.519531 -10.132812 13.09375 -8.8125 L 8.09375 -4.09375 Z M 17.4375 -4.09375 "/></g></g><g style="fill:#1e2a47;fill-opacity:0.4;"><g transform="translate(200.15235, 181.461966)"><path style="stroke:none" d="M 11.984375 -21.71875 C 13.898438 -21.71875 15.566406 -21.394531 16.984375 -20.75 C 18.398438 -20.113281 19.488281 -19.207031 20.25 -18.03125 C 21.019531 -16.851562 21.40625 -15.457031 21.40625 -13.84375 C 21.40625 -12.25 21.019531 -10.851562 20.25 -9.65625 C 19.488281 -8.46875 18.398438 -7.554688 16.984375 -6.921875 C 15.566406 -6.296875 13.898438 -5.984375 11.984375 -5.984375 L 7.609375 -5.984375 L 7.609375 0 L 2.578125 0 L 2.578125 -21.71875 Z M 11.703125 -10.078125 C 13.210938 -10.078125 14.359375 -10.40625 15.140625 -11.0625 C 15.929688 -11.71875 16.328125 -12.644531 16.328125 -13.84375 C 16.328125 -15.0625 15.929688 -15.992188 15.140625 -16.640625 C 14.359375 -17.296875 13.210938 -17.625 11.703125 -17.625 L 7.609375 -17.625 L 7.609375 -10.078125 Z M 11.703125 -10.078125 "/></g></g><g style="fill:#1e2a47;fill-opacity:0.4;"><g transform="translate(221.474994, 181.461966)"><path style="stroke:none" d="M 16.875 -4.65625 L 6.796875 -4.65625 L 4.875 0 L -0.28125 0 L 9.40625 -21.71875 L 14.375 -21.71875 L 24.078125 0 L 18.8125 0 Z M 15.296875 -8.46875 L 11.859375 -16.78125 L 8.40625 -8.46875 Z M 15.296875 -8.46875 "/></g></g><g style="fill:#1e2a47;fill-opacity:0.4;"><g transform="translate(243.914983, 181.461966)"><path style="stroke:none" d="M 13 -7.703125 L 13 0 L 7.96875 0 L 7.96875 -7.75 L -0.4375 -21.71875 L 4.90625 -21.71875 L 10.703125 -12.078125 L 16.515625 -21.71875 L 21.4375 -21.71875 Z M 13 -7.703125 "/></g></g><g style="fill:#469ebd;fill-opacity:1;"><g transform="translate(198.780503, 180.090109)"><path style="stroke:none" d="M 11.984375 -21.71875 C 13.898438 -21.71875 15.566406 -21.394531 16.984375 -20.75 C 18.398438 -20.113281 19.488281 -19.207031 20.25 -18.03125 C 21.019531 -16.851562 21.40625 -15.457031 21.40625 -13.84375 C 21.40625 -12.25 21.019531 -10.851562 20.25 -9.65625 C 19.488281 -8.46875 18.398438 -7.554688 16.984375 -6.921875 C 15.566406 -6.296875 13.898438 -5.984375 11.984375 -5.984375 L 7.609375 -5.984375 L 7.609375 0 L 2.578125 0 L 2.578125 -21.71875 Z M 11.703125 -10.078125 C 13.210938 -10.078125 14.359375 -10.40625 15.140625 -11.0625 C 15.929688 -11.71875 16.328125 -12.644531 16.328125 -13.84375 C 16.328125 -15.0625 15.929688 -15.992188 15.140625 -16.640625 C 14.359375 -17.296875 13.210938 -17.625 11.703125 -17.625 L 7.609375 -17.625 L 7.609375 -10.078125 Z M 11.703125 -10.078125 "/></g></g><g style="fill:#469ebd;fill-opacity:1;"><g transform="translate(220.103147, 180.090109)"><path style="stroke:none" d="M 16.875 -4.65625 L 6.796875 -4.65625 L 4.875 0 L -0.28125 0 L 9.40625 -21.71875 L 14.375 -21.71875 L 24.078125 0 L 18.8125 0 Z M 15.296875 -8.46875 L 11.859375 -16.78125 L 8.40625 -8.46875 Z M 15.296875 -8.46875 "/></g></g><g style="fill:#469ebd;fill-opacity:1;"><g transform="translate(242.543136, 180.090109)"><path style="stroke:none" d="M 13 -7.703125 L 13 0 L 7.96875 0 L 7.96875 -7.75 L -0.4375 -21.71875 L 4.90625 -21.71875 L 10.703125 -12.078125 L 16.515625 -21.71875 L 21.4375 -21.71875 Z M 13 -7.703125 "/></g></g></g></svg>