<svg width="81" height="80" viewBox="0 0 81 80" fill="none" xmlns="http://www.w3.org/2000/svg">
<rect x="0.75" width="80" height="80" rx="40" fill="#00C896"/>
<path d="M35.7502 40L39.0835 43.3334L46.5835 35.8334M32.9731 26.3645C34.3128 26.2576 35.5847 25.7308 36.6076 24.8591C38.9947 22.8248 42.5056 22.8248 44.8927 24.8591C45.9156 25.7308 47.1875 26.2576 48.5272 26.3645C51.6536 26.614 54.1362 29.0966 54.3857 32.223C54.4926 33.5627 55.0194 34.8346 55.8911 35.8575C57.9254 38.2446 57.9254 41.7555 55.8911 44.1426C55.0194 45.1655 54.4926 46.4374 54.3857 47.7771C54.1362 50.9035 51.6536 53.3861 48.5272 53.6356C47.1875 53.7425 45.9156 54.2693 44.8927 55.141C42.5056 57.1753 38.9947 57.1753 36.6076 55.141C35.5847 54.2693 34.3128 53.7425 32.9731 53.6356C29.8467 53.3861 27.3641 50.9035 27.1147 47.7771C27.0077 46.4374 26.4809 45.1655 25.6092 44.1426C23.5749 41.7555 23.5749 38.2446 25.6092 35.8575C26.4809 34.8346 27.0077 33.5627 27.1147 32.223C27.3641 29.0966 29.8467 26.614 32.9731 26.3645Z" stroke="white" stroke-width="3" stroke-linecap="round" stroke-linejoin="round"/>
</svg>
