<svg width="81" height="80" viewBox="0 0 81 80" fill="none" xmlns="http://www.w3.org/2000/svg">
<rect x="0.25" width="80" height="80" rx="40" fill="#338FF6"/>
<path d="M33.5835 43.3334C33.5835 43.3334 36.0835 46.6667 40.2502 46.6667C44.4168 46.6667 46.9168 43.3334 46.9168 43.3334M48.5835 35.4C47.9252 36.2084 47.0252 36.6667 46.0835 36.6667C45.1418 36.6667 44.2668 36.2084 43.5835 35.4M36.9168 35.4C36.2585 36.2084 35.3585 36.6667 34.4168 36.6667C33.4752 36.6667 32.6002 36.2084 31.9168 35.4M56.9168 40C56.9168 49.2048 49.4549 56.6667 40.2502 56.6667C31.0454 56.6667 23.5835 49.2048 23.5835 40C23.5835 30.7953 31.0454 23.3334 40.2502 23.3334C49.4549 23.3334 56.9168 30.7953 56.9168 40Z" stroke="white" stroke-width="3" stroke-linecap="round" stroke-linejoin="round"/>
</svg>
