<svg width="618" height="171" viewBox="0 0 618 171" fill="none" xmlns="http://www.w3.org/2000/svg">
<path d="M37.333 5.75354C41.0123 2.06961 46.0024 0 51.2057 0C56.409 0 61.3992 2.06961 65.0784 5.75354C68.7577 9.43748 70.8247 14.434 70.8247 19.6438C70.8247 24.8537 68.7577 29.8502 65.0784 33.5341C61.3992 37.2181 56.409 39.2877 51.2057 39.2877C46.0024 39.2877 41.0123 37.2181 37.333 33.5341C33.6537 29.8502 31.5868 24.8537 31.5868 19.6438C31.5868 14.434 33.6537 9.43748 37.333 5.75354Z" fill="url(#paint0_linear_591_70)"/>
<path d="M15.082 61.4759C35.1914 40.0121 67.8086 40.0121 87.918 61.4759C108.027 82.9397 108.027 117.753 87.918 139.217L87.8684 139.269L60.8484 166.989C58.3349 169.564 54.9849 171.002 51.5007 171C48.0163 170.998 44.6674 169.557 42.1563 166.978L32.3177 156.892C32.3643 156.863 32.411 156.833 32.4578 156.804C34.179 155.728 35.9587 154.718 36.7609 154.415C42.0013 152.437 45.0223 150.424 46.7168 148.347C48.4139 146.267 48.775 144.129 48.7138 141.919C48.6832 140.815 48.5475 139.69 48.4201 138.548C48.2925 137.404 48.1733 136.239 48.1746 135.049C48.1774 132.672 48.6614 130.191 50.5257 127.577C50.9464 126.987 51.693 126.405 52.6554 125.82C53.6163 125.236 54.7857 124.652 56.0458 124.056C58.5636 122.866 61.4452 121.626 63.7238 120.24C64.8635 119.547 65.8568 118.814 66.5805 118.03C67.3041 117.246 67.7626 116.406 67.823 115.496C67.8834 114.586 67.5442 113.619 66.6985 112.585C65.8532 111.552 64.499 110.448 62.5215 109.26C62.2996 109.126 61.9981 109.011 61.6384 108.9C61.2779 108.788 60.8537 108.677 60.3851 108.554C59.4463 108.307 58.3234 108.007 57.1475 107.536C54.881 106.628 52.4201 105.085 50.7168 102.065L54.1883 96.5623L54.2346 96.4898L54.2949 96.5509L55.6072 97.8649L59.6816 91.4058L59.7366 91.3192L59.7963 91.4031L67.9893 103.024L69.305 101.707L69.3533 101.658L69.4015 101.707L70.9291 103.237C71.0535 102.285 71.1189 101.319 71.1189 100.346C71.1189 94.7927 69.052 89.466 65.3728 85.5389C61.6935 81.612 56.7032 79.4062 51.5 79.4062C46.2968 79.4062 41.3065 81.612 37.6272 85.5389C33.948 89.466 31.8811 94.7927 31.8811 100.346C31.8812 102.937 32.3308 105.478 33.184 107.85L42.8604 94.1533L42.9133 94.0787L42.9703 94.1499L49.3488 102.057L49.3434 102.059L49.3783 102.13C49.8293 103.034 50.78 106.263 53.8691 108.003C55.243 108.777 56.6826 109.592 57.8811 110.422C59.0822 111.255 60.0298 112.095 60.4333 112.915C60.6338 113.323 60.6983 113.723 60.5963 114.113C60.4939 114.505 60.2214 114.897 59.7312 115.286C58.7484 116.066 56.9074 116.815 53.8879 117.502C52.6013 117.802 51.2216 118.096 49.8122 118.398C48.4029 118.7 46.9632 119.011 45.5567 119.345C42.7449 120.013 40.0603 120.778 38.0101 121.762C35.964 122.745 34.5274 123.958 34.2509 125.534C33.9744 127.112 34.8656 129.017 37.3764 131.369C38.1062 132.052 38.3784 132.708 38.3126 133.344C38.2462 133.985 37.8359 134.625 37.1585 135.272C35.8032 136.565 33.4179 137.849 30.7713 139.179C28.1293 140.508 25.2308 141.881 22.866 143.352C22.0493 143.86 21.2957 144.382 20.6363 144.917L15.1316 139.274L15.082 139.217C-5.02738 117.753 -5.02728 82.9397 15.082 61.4759Z" fill="url(#paint1_linear_591_70)"/>
<path d="M47.5295 89.5779L50.3693 90.3687C50.4032 90.3785 50.4341 90.3968 50.459 90.4217C50.484 90.4467 50.5022 90.4776 50.512 90.5116L51.3019 93.355C51.3142 93.3981 51.3402 93.4361 51.3759 93.4631C51.4117 93.4901 51.4552 93.5047 51.5 93.5047C51.5448 93.5047 51.5883 93.4901 51.6241 93.4631C51.6598 93.4361 51.6858 93.3981 51.6981 93.355L52.488 90.5116C52.4978 90.4776 52.516 90.4467 52.541 90.4217C52.5659 90.3968 52.5968 90.3785 52.6307 90.3687L55.4705 89.5779C55.5136 89.5655 55.5515 89.5395 55.5784 89.5037C55.6054 89.4679 55.62 89.4243 55.62 89.3795C55.62 89.3346 55.6054 89.291 55.5784 89.2552C55.5515 89.2194 55.5136 89.1934 55.4705 89.1811L52.6307 88.3902C52.5968 88.3804 52.5659 88.3622 52.541 88.3372C52.516 88.3122 52.4978 88.2813 52.488 88.2474L51.6981 85.4039C51.6858 85.3608 51.6598 85.3229 51.6241 85.2959C51.5883 85.2689 51.5448 85.2543 51.5 85.2543C51.4552 85.2543 51.4117 85.2689 51.3759 85.2959C51.3402 85.3229 51.3142 85.3608 51.3019 85.4039L50.512 88.2474C50.5022 88.2813 50.484 88.3122 50.459 88.3372C50.4341 88.3622 50.4032 88.3804 50.3693 88.3902L47.5295 89.1811C47.4864 89.1934 47.4485 89.2194 47.4216 89.2552C47.3946 89.291 47.38 89.3346 47.38 89.3795C47.38 89.4243 47.3946 89.4679 47.4216 89.5037C47.4485 89.5395 47.4864 89.5655 47.5295 89.5779Z" fill="url(#paint2_linear_591_70)"/>
<path d="M135 126.925L142.392 119.885C146.477 124.676 152.799 127.512 160.969 127.512C170.986 127.512 176.725 124.578 177.6 119.591C179.059 111.768 165.054 108.932 159.899 107.368C148.617 103.945 136.07 99.3489 136.07 86.6363C136.07 75.4884 146.574 65.8073 163.108 66.0029C173.223 66.1007 181.296 70.5012 187.132 76.8575L179.74 83.8983C176.239 79.6933 170.306 76.3685 163.108 76.2707C152.604 76.1729 146.282 80.769 146.38 87.1253C146.477 92.8948 154.744 95.4373 163.886 98.371C175.266 101.891 187.521 105.999 188.007 117.146C188.493 128.881 177.989 137.78 160.969 137.78C149.881 137.78 141.03 133.673 135 126.925Z" fill="#38303F"/>
<path d="M241.813 108.834V137.095H232.087V109.812C232.087 99.6422 228.683 95.9263 223.528 95.9263C212.829 95.9263 206.021 110.79 206.021 119.885V137.095H196.295V78.1287C196.295 75.8796 195.419 75.4884 193.961 75.4884H193.474V66.6874H198.532C203.006 66.6874 206.021 69.7189 206.021 74.2172V97.2953C210.106 90.939 216.331 86.4408 224.695 86.343C235.88 86.343 241.813 94.0683 241.813 108.834Z" fill="#38303F"/>
<path d="M248.586 111.964C248.586 96.9042 258.409 86.2452 273.971 86.2452C289.533 86.2452 299.356 96.9042 299.356 111.964C299.356 127.023 289.922 138.073 273.777 138.073C257.826 138.073 248.586 127.023 248.586 111.964ZM273.971 128.294C284.767 128.197 289.727 121.351 289.727 111.964C289.727 102.576 284.184 96.0241 273.971 96.0241C263.759 96.0241 258.215 102.576 258.215 111.964C258.215 121.351 263.37 128.392 273.971 128.294Z" fill="#38303F"/>
<path d="M353.654 111.084C353.654 125.654 344.706 137.975 329.241 138.367C324.281 138.464 319.904 137.389 315.819 135.14V159H306.093V98.6644C306.093 96.4152 305.218 96.0241 303.759 96.0241H303.273V87.2231H308.33C312.804 87.2231 315.819 90.2545 315.819 94.7528V96.6108C319.612 90.6457 325.351 86.5385 333.326 86.5385C346.651 86.5385 353.654 98.0776 353.654 111.084ZM315.819 124.481C319.029 127.512 324.864 128.881 329.241 128.49C339.162 127.708 344.025 119.885 344.025 110.986C344.025 103.554 340.621 96.2196 332.159 96.2196C320.099 96.2196 315.819 110.497 315.819 120.276V124.481Z" fill="#38303F"/>
<path d="M351.249 66.6874H361.948L379.941 128.294H382.665L400.658 66.6874H411.357L390.64 137.095H371.966L351.249 66.6874Z" fill="#063C6A"/>
<path d="M425.943 82.4314H418.162C417.286 82.4314 416.703 81.8447 416.703 80.9646V75.8796C416.703 74.9995 417.286 74.4127 418.162 74.4127H425.943C426.818 74.4127 427.402 74.9995 427.402 75.8796V80.9646C427.402 81.8447 426.818 82.4314 425.943 82.4314ZM428.277 94.7528V137.095H418.551V98.6644C418.551 96.4152 417.675 96.0241 416.217 96.0241H415.73V87.2231H420.788C425.262 87.2231 428.277 90.2545 428.277 94.7528Z" fill="#063C6A"/>
<path d="M435.227 122.72C435.324 112.061 443.591 109.323 451.858 107.368C457.499 106.096 463.627 105.216 468.198 102.38C466.35 98.0776 462.654 96.4152 456.624 96.4152C450.885 96.4152 447.579 97.4909 441.84 99.4467V89.6678C447.579 87.712 450.885 86.6363 456.624 86.6363C470.24 86.6363 479.383 93.4816 479.383 110.203V125.654C479.383 127.903 480.258 128.294 481.717 128.294H482.203V137.095H477.146C472.769 137.095 469.754 134.162 469.657 129.859C465.961 134.455 460.612 137.878 453.609 138.073C441.937 138.464 435.129 132.304 435.227 122.72ZM469.657 110.79C466.35 112.942 460.223 113.626 454.97 114.995C449.913 116.364 445.439 118.222 445.05 122.623C444.661 126.73 448.065 129.174 454.776 128.392C463.529 127.316 469.657 119.396 469.657 110.79Z" fill="#063C6A"/>
<path d="M497.199 101.598C497.199 116.266 505.855 127.414 521.709 127.414C529.879 127.414 536.201 124.089 540.286 119.298L547.677 126.339C541.647 133.086 532.797 137.682 521.709 137.682C500.506 137.682 487.084 122.134 487.084 101.598C487.084 81.0624 500.506 66.0029 521.709 66.0029C532.797 66.0029 541.647 70.11 547.677 76.8575L540.286 83.8983C536.201 79.1066 529.879 76.2707 521.709 76.2707C505.855 76.2707 497.199 86.9297 497.199 101.598Z" fill="#063C6A"/>
<path d="M552.623 122.72C552.721 112.061 560.988 109.323 569.255 107.368C574.896 106.096 581.023 105.216 585.595 102.38C583.747 98.0776 580.051 96.4152 574.021 96.4152C568.282 96.4152 564.975 97.4909 559.237 99.4467V89.6678C564.975 87.712 568.282 86.6363 574.021 86.6363C587.637 86.6363 596.78 93.4816 596.78 110.203V125.654C596.78 127.903 597.655 128.294 599.114 128.294H599.6V137.095H594.543C590.166 137.095 587.151 134.162 587.054 129.859C583.358 134.455 578.008 137.878 571.006 138.073C559.334 138.464 552.526 132.304 552.623 122.72ZM587.054 110.79C583.747 112.942 577.619 113.626 572.367 114.995C567.31 116.364 562.836 118.222 562.447 122.623C562.058 126.73 565.462 129.174 572.173 128.392C580.926 127.316 587.054 119.396 587.054 110.79Z" fill="#063C6A"/>
<path d="M618 127.316V137.095H617.514C609.538 137.095 605.453 133.282 605.453 125.85V66.6874H615.179V123.698C615.179 125.947 616.055 127.316 617.514 127.316H618Z" fill="#063C6A"/>
<defs>
<linearGradient id="paint0_linear_591_70" x1="11.0991" y1="47.2385" x2="65.0827" y2="164.761" gradientUnits="userSpaceOnUse">
<stop offset="0.239014" stop-color="#0270EB"/>
<stop offset="1" stop-color="#063C6A"/>
</linearGradient>
<linearGradient id="paint1_linear_591_70" x1="11.0991" y1="47.2385" x2="65.0827" y2="164.761" gradientUnits="userSpaceOnUse">
<stop offset="0.239014" stop-color="#0270EB"/>
<stop offset="1" stop-color="#063C6A"/>
</linearGradient>
<linearGradient id="paint2_linear_591_70" x1="11.0991" y1="47.2385" x2="65.0827" y2="164.761" gradientUnits="userSpaceOnUse">
<stop offset="0.239014" stop-color="#0270EB"/>
<stop offset="1" stop-color="#063C6A"/>
</linearGradient>
</defs>
</svg>
