<svg width="200" height="56" viewBox="0 0 200 56" fill="none" xmlns="http://www.w3.org/2000/svg">
<g clip-path="url(#clip0_212_3)">
<path d="M12.0818 1.86199C13.2725 0.669777 14.8874 0 16.5713 0C18.2552 0 19.8702 0.669777 21.0609 1.86199C22.2516 3.0542 22.9205 4.6712 22.9205 6.35722C22.9205 8.04327 22.2516 9.66026 21.0609 10.8525C19.8702 12.0447 18.2552 12.7145 16.5713 12.7145C14.8874 12.7145 13.2725 12.0447 12.0818 10.8525C10.8911 9.66026 10.2222 8.04327 10.2222 6.35722C10.2222 4.6712 10.8911 3.0542 12.0818 1.86199Z" fill="#FEFEFE"/>
<path d="M4.88091 19.8952C11.3888 12.949 21.9445 12.949 28.4524 19.8952C34.9602 26.8414 34.9602 38.1079 28.4524 45.0541L28.4364 45.071L19.692 54.0418C18.8786 54.8752 17.7945 55.3405 16.6669 55.3399C15.5393 55.3392 14.4555 54.8729 13.6428 54.0383L10.4588 50.7742C10.4739 50.7648 10.489 50.7551 10.5041 50.7457C11.0612 50.3975 11.6371 50.0706 11.8967 49.9726C13.5927 49.3325 14.5703 48.681 15.1187 48.0088C15.6679 47.3357 15.7848 46.6438 15.765 45.9286C15.7551 45.5713 15.7112 45.2072 15.6699 44.8376C15.6286 44.4674 15.5901 44.0904 15.5905 43.7053C15.5914 42.936 15.748 42.1331 16.3514 41.2871C16.4875 41.0962 16.7291 40.9079 17.0406 40.7185C17.3516 40.5295 17.73 40.3405 18.1378 40.1477C18.9526 39.7626 19.8852 39.3613 20.6226 38.9127C20.9914 38.6884 21.3129 38.4512 21.5471 38.1975C21.7813 37.9438 21.9296 37.6719 21.9492 37.3774C21.9687 37.0829 21.859 36.77 21.5853 36.4354C21.3117 36.1011 20.8735 35.7438 20.2335 35.3593C20.1617 35.316 20.0641 35.2787 19.9477 35.2428C19.831 35.2066 19.6938 35.1706 19.5421 35.1308C19.2383 35.0509 18.8749 34.9538 18.4943 34.8014C17.7608 34.5075 16.9644 34.0082 16.4132 33.0308L17.5367 31.25L17.5517 31.2266L17.5712 31.2463L17.9959 31.6716L19.3144 29.5813L19.3322 29.5532L19.3516 29.5804L22.003 33.3412L22.4288 32.915L22.4444 32.8991L22.46 32.915L22.9544 33.4101C22.9947 33.102 23.0158 32.7894 23.0158 32.4745C23.0158 30.6773 22.3469 28.9535 21.1562 27.6826C19.9655 26.4117 18.3505 25.6979 16.6667 25.6979C14.9828 25.6979 13.3678 26.4117 12.1771 27.6826C10.9864 28.9535 10.3175 30.6773 10.3175 32.4745C10.3175 33.313 10.463 34.1354 10.7392 34.903L13.8707 30.4704L13.8878 30.4463L13.9062 30.4693L15.9705 33.0282L15.9687 33.0289L15.98 33.0519C16.126 33.3444 16.4337 34.3894 17.4334 34.9525C17.878 35.203 18.3439 35.4668 18.7317 35.7354C19.1205 36.0049 19.4271 36.2768 19.5577 36.5422C19.6226 36.6742 19.6435 36.8037 19.6105 36.9299C19.5773 37.0567 19.4891 37.1836 19.3305 37.3095C19.0124 37.5619 18.4166 37.8043 17.4394 38.0266C17.0231 38.1237 16.5766 38.2189 16.1205 38.3166C15.6644 38.4143 15.1984 38.515 14.7433 38.6231C13.8333 38.8393 12.9645 39.0868 12.301 39.4053C11.6388 39.7234 11.1739 40.1159 11.0844 40.626C10.995 41.1367 11.2834 41.7532 12.0959 42.5143C12.3321 42.7354 12.4202 42.9477 12.3989 43.1535C12.3774 43.3609 12.2446 43.5681 12.0254 43.7774C11.5868 44.1959 10.8149 44.6114 9.95835 45.0418C9.10333 45.4719 8.16531 45.9163 7.4 46.3923C7.1357 46.5567 6.89181 46.7257 6.67841 46.8988L4.89696 45.0726L4.88091 45.0541C-1.62698 38.1079 -1.62695 26.8414 4.88091 19.8952Z" fill="#FEFEFE"/>
<path d="M15.3814 28.9896L16.3004 29.2455C16.3114 29.2486 16.3214 29.2546 16.3294 29.2626C16.3375 29.2707 16.3434 29.2807 16.3466 29.2917L16.6022 30.2119C16.6062 30.2259 16.6146 30.2382 16.6262 30.2469C16.6378 30.2556 16.6518 30.2604 16.6663 30.2604C16.6808 30.2604 16.6949 30.2556 16.7065 30.2469C16.7181 30.2382 16.7265 30.2259 16.7305 30.2119L16.9861 29.2917C16.9893 29.2807 16.9951 29.2707 17.0032 29.2626C17.0113 29.2546 17.0213 29.2486 17.0323 29.2455L17.9513 28.9896C17.9652 28.9855 17.9775 28.9771 17.9862 28.9655C17.9949 28.954 17.9997 28.9398 17.9997 28.9253C17.9997 28.9108 17.9949 28.8967 17.9862 28.8851C17.9775 28.8735 17.9652 28.8651 17.9513 28.8611L17.0323 28.6052C17.0213 28.602 17.0113 28.5961 17.0032 28.588C16.9951 28.5799 16.9893 28.5699 16.9861 28.559L16.7305 27.6387C16.7265 27.6248 16.7181 27.6125 16.7065 27.6038C16.6949 27.5951 16.6808 27.5903 16.6663 27.5903C16.6518 27.5903 16.6378 27.5951 16.6262 27.6038C16.6146 27.6125 16.6062 27.6248 16.6022 27.6387L16.3466 28.559C16.3434 28.5699 16.3375 28.5799 16.3294 28.588C16.3214 28.5961 16.3114 28.602 16.3004 28.6052L15.3814 28.8611C15.3674 28.8651 15.3552 28.8735 15.3465 28.8851C15.3377 28.8967 15.333 28.9108 15.333 28.9253C15.333 28.9398 15.3377 28.954 15.3465 28.9655C15.3552 28.9771 15.3674 28.9855 15.3814 28.9896Z" fill="#FEFEFE"/>
<path d="M43.6895 41.0762L46.0817 38.7979C47.4037 40.3484 49.4496 41.2662 52.0937 41.2662C55.3354 41.2662 57.1927 40.3167 57.4759 38.7027C57.948 36.171 53.4157 35.2532 51.7474 34.7471C48.0963 33.6393 44.0357 32.1519 44.0357 28.0378C44.0357 24.4301 47.4351 21.297 52.7859 21.3603C56.0594 21.392 58.672 22.8161 60.5607 24.8731L58.1684 27.1517C57.0354 25.7909 55.1153 24.7149 52.7859 24.6832C49.3865 24.6516 47.3406 26.139 47.3723 28.196C47.4037 30.0632 50.0791 30.886 53.0377 31.8354C56.7205 32.9746 60.6865 34.304 60.8438 37.9115C61.0011 41.7092 57.6017 44.5892 52.0937 44.5892C48.5053 44.5892 45.6409 43.26 43.6895 41.0762Z" fill="#FEFEFE"/>
<path d="M78.2565 35.2212V44.3672H75.1089V35.5377C75.1089 32.2465 74.0073 31.044 72.339 31.044C68.8765 31.044 66.6733 35.8542 66.6733 38.7976V44.3672H63.5257V25.2842C63.5257 24.5564 63.2422 24.4298 62.7704 24.4298H62.6128V21.5815H64.2497C65.6976 21.5815 66.6733 22.5626 66.6733 24.0184V31.487C67.9953 29.43 70.0099 27.9742 72.7167 27.9426C76.3364 27.9426 78.2565 30.4427 78.2565 35.2212Z" fill="#FEFEFE"/>
<path d="M80.4487 36.2344C80.4487 31.3606 83.6277 27.9111 88.6639 27.9111C93.7002 27.9111 96.8791 31.3606 96.8791 36.2344C96.8791 41.1078 93.8261 44.6839 88.6012 44.6839C83.439 44.6839 80.4487 41.1078 80.4487 36.2344ZM88.6639 41.5192C92.1578 41.4878 93.763 39.2722 93.763 36.2344C93.763 33.1962 91.9691 31.0758 88.6639 31.0758C85.3591 31.0758 83.5649 33.1962 83.5649 36.2344C83.5649 39.2722 85.2332 41.5509 88.6639 41.5192Z" fill="#FEFEFE"/>
<path d="M114.451 35.9494C114.451 40.6646 111.555 44.652 106.55 44.7788C104.945 44.8102 103.529 44.4623 102.207 43.7345V51.4562H99.0591V31.9301C99.0591 31.2022 98.7759 31.0756 98.3038 31.0756H98.1465V28.2274H99.783C101.231 28.2274 102.207 29.2084 102.207 30.6642V31.2655C103.434 29.3351 105.291 28.0059 107.872 28.0059C112.185 28.0059 114.451 31.7402 114.451 35.9494ZM102.207 40.285C103.246 41.2659 105.134 41.7089 106.55 41.5824C109.761 41.3293 111.335 38.7976 111.335 35.9177C111.335 33.5125 110.233 31.1389 107.495 31.1389C103.592 31.1389 102.207 35.7594 102.207 38.9241V40.285Z" fill="#FEFEFE"/>
<path d="M113.673 21.5815H117.135L122.958 41.519H123.84L129.663 21.5815H133.125L126.421 44.3672H120.377L113.673 21.5815Z" fill="#FEFEFE"/>
<path d="M137.846 26.6766H135.328C135.044 26.6766 134.855 26.4867 134.855 26.2019V24.5563C134.855 24.2714 135.044 24.0815 135.328 24.0815H137.846C138.129 24.0815 138.318 24.2714 138.318 24.5563V26.2019C138.318 26.4867 138.129 26.6766 137.846 26.6766ZM138.601 30.6641V44.3671H135.453V31.93C135.453 31.2021 135.17 31.0755 134.698 31.0755H134.541V28.2273H136.177C137.625 28.2273 138.601 29.2083 138.601 30.6641Z" fill="#FEFEFE"/>
<path d="M140.85 39.7152C140.881 36.2657 143.557 35.3796 146.232 34.7469C148.058 34.3352 150.041 34.0504 151.52 33.1326C150.922 31.7403 149.726 31.2023 147.775 31.2023C145.917 31.2023 144.847 31.5504 142.99 32.1834V29.0187C144.847 28.3857 145.917 28.0376 147.775 28.0376C152.181 28.0376 155.14 30.2529 155.14 35.6644V40.6647C155.14 41.3925 155.423 41.5191 155.895 41.5191H156.053V44.3673H154.416C152.999 44.3673 152.024 43.4181 151.992 42.0255C150.796 43.5129 149.065 44.6207 146.799 44.6838C143.021 44.8103 140.818 42.8168 140.85 39.7152ZM151.992 35.8543C150.922 36.5508 148.939 36.7721 147.239 37.2152C145.603 37.6582 144.155 38.2595 144.029 39.6838C143.903 41.0129 145.005 41.8038 147.176 41.5508C150.009 41.2025 151.992 38.6394 151.992 35.8543Z" fill="#FEFEFE"/>
<path d="M160.906 32.8798C160.906 37.6267 163.707 41.2345 168.838 41.2345C171.482 41.2345 173.528 40.1584 174.85 38.608L177.242 40.8866C175.29 43.0701 172.426 44.5575 168.838 44.5575C161.976 44.5575 157.632 39.5258 157.632 32.8798C157.632 26.234 161.976 21.3604 168.838 21.3604C172.426 21.3604 175.29 22.6895 177.242 24.8732L174.85 27.1517C173.528 25.601 171.482 24.6833 168.838 24.6833C163.707 24.6833 160.906 28.1328 160.906 32.8798Z" fill="#FEFEFE"/>
<path d="M178.843 39.7152C178.874 36.2657 181.55 35.3796 184.225 34.7469C186.051 34.3352 188.034 34.0504 189.513 33.1326C188.915 31.7403 187.719 31.2023 185.768 31.2023C183.91 31.2023 182.84 31.5504 180.983 32.1834V29.0187C182.84 28.3857 183.91 28.0376 185.768 28.0376C190.174 28.0376 193.133 30.2529 193.133 35.6644V40.6647C193.133 41.3925 193.416 41.5191 193.888 41.5191H194.046V44.3673H192.409C190.992 44.3673 190.017 43.4181 189.985 42.0255C188.789 43.5129 187.058 44.6207 184.792 44.6838C181.014 44.8103 178.811 42.8168 178.843 39.7152ZM189.985 35.8543C188.915 36.5508 186.932 36.7721 185.232 37.2152C183.596 37.6582 182.148 38.2595 182.022 39.6838C181.896 41.0129 182.998 41.8038 185.169 41.5508C188.002 41.2025 189.985 38.6394 189.985 35.8543Z" fill="#FEFEFE"/>
<path d="M200 41.2024V44.3672H199.843C197.261 44.3672 195.939 43.1332 195.939 40.728V21.5815H199.087V40.0316C199.087 40.7594 199.371 41.2024 199.843 41.2024H200Z" fill="#FEFEFE"/>
</g>
<defs>
<clipPath id="clip0_212_3">
<rect width="200" height="55.3398" fill="white"/>
</clipPath>
</defs>
</svg>
