<svg width="120" height="35" viewBox="0 0 120 35" fill="none" xmlns="http://www.w3.org/2000/svg">
<g clip-path="url(#clip0_2037_339)">
<path d="M7.24907 2.01526C7.9635 1.29994 8.93245 0.898071 9.9428 0.898071C10.9531 0.898071 11.9221 1.29994 12.6365 2.01526C13.351 2.73059 13.7523 3.70079 13.7523 4.7124C13.7523 5.72403 13.351 6.69423 12.6365 7.40955C11.9221 8.12489 10.9531 8.52675 9.9428 8.52675C8.93245 8.52675 7.9635 8.12489 7.24907 7.40955C6.53464 6.69423 6.1333 5.72403 6.1333 4.7124C6.1333 3.70079 6.53464 2.73059 7.24907 2.01526Z" fill="#F38C05"/>
<path d="M2.92854 12.835C6.83328 8.6673 13.1667 8.6673 17.0715 12.835C20.9761 17.0028 20.9761 23.7626 17.0715 27.9304L17.0618 27.9405L11.8152 33.323C11.3272 33.823 10.6767 34.1022 10.0001 34.1018C9.32355 34.1014 8.67328 33.8216 8.18569 33.3209L6.27528 31.3624C6.28433 31.3568 6.2934 31.351 6.30248 31.3453C6.6367 31.1364 6.98227 30.9403 7.13804 30.8814C8.15559 30.4974 8.74219 30.1065 9.07122 29.7032C9.40076 29.2993 9.47087 28.8842 9.45899 28.455C9.45305 28.2407 9.4267 28.0222 9.40196 27.8005C9.37718 27.5783 9.35404 27.3521 9.35429 27.1211C9.35483 26.6595 9.44881 26.1778 9.81081 25.6702C9.8925 25.5556 10.0375 25.4426 10.2243 25.329C10.4109 25.2156 10.638 25.1022 10.8827 24.9865C11.3716 24.7554 11.9311 24.5147 12.3736 24.2455C12.5949 24.111 12.7877 23.9686 12.9283 23.8164C13.0688 23.6642 13.1578 23.5011 13.1695 23.3244C13.1812 23.1477 13.1154 22.9599 12.9512 22.7591C12.787 22.5585 12.5241 22.3442 12.1401 22.1135C12.097 22.0875 12.0385 22.0651 11.9686 22.0436C11.8986 22.0218 11.8163 22.0003 11.7253 21.9764C11.543 21.9284 11.3249 21.8702 11.0966 21.7787C10.6565 21.6024 10.1787 21.3028 9.84792 20.7164L10.522 19.6479L10.531 19.6338L10.5427 19.6457L10.7975 19.9008L11.5887 18.6467L11.5993 18.6298L11.6109 18.6461L13.2018 20.9026L13.4573 20.6469L13.4667 20.6374L13.476 20.6469L13.7726 20.944C13.7968 20.7591 13.8095 20.5715 13.8095 20.3826C13.8095 19.3043 13.4082 18.27 12.6937 17.5075C11.9793 16.7449 11.0103 16.3166 10 16.3166C8.98967 16.3166 8.02068 16.7449 7.30625 17.5075C6.59184 18.27 6.1905 19.3043 6.1905 20.3826C6.19052 20.8857 6.27782 21.3791 6.44349 21.8397L8.32241 19.1802L8.33268 19.1657L8.34375 19.1795L9.58229 20.7148L9.58124 20.7152L9.58802 20.729C9.67559 20.9046 9.86019 21.5315 10.46 21.8694C10.7268 22.0197 11.0063 22.178 11.239 22.3391C11.4723 22.5009 11.6563 22.664 11.7346 22.8232C11.7736 22.9024 11.7861 22.9801 11.7663 23.0558C11.7464 23.1319 11.6935 23.2081 11.5983 23.2836C11.4075 23.435 11.05 23.5805 10.4637 23.7139C10.2138 23.7721 9.94594 23.8292 9.67227 23.8879C9.39862 23.9465 9.11907 24.0069 8.84596 24.0717C8.29998 24.2015 7.7787 24.35 7.3806 24.5411C6.9833 24.7319 6.70435 24.9675 6.65066 25.2735C6.59697 25.5799 6.77002 25.9498 7.25755 26.4065C7.39926 26.5391 7.45212 26.6665 7.43934 26.79C7.42645 26.9145 7.34678 27.0387 7.21524 27.1644C6.95208 27.4154 6.48891 27.6648 5.97501 27.923C5.462 28.1811 4.89918 28.4477 4.44 28.7333C4.28142 28.8319 4.13509 28.9333 4.00705 29.0372L2.93817 27.9415L2.92854 27.9304C-0.976191 23.7626 -0.976171 17.0028 2.92854 12.835Z" fill="#0BA467"/>
<path d="M9.22874 18.2918L9.78015 18.4454C9.78674 18.4473 9.79274 18.4508 9.79757 18.4556C9.80243 18.4605 9.80596 18.4665 9.80786 18.4731L9.96124 19.0252C9.96363 19.0336 9.96868 19.041 9.97561 19.0462C9.98256 19.0515 9.99101 19.0543 9.99971 19.0543C10.0084 19.0543 10.0169 19.0515 10.0238 19.0462C10.0307 19.041 10.0358 19.0336 10.0382 19.0252L10.1916 18.4731C10.1935 18.4665 10.197 18.4605 10.2018 18.4556C10.2067 18.4508 10.2127 18.4473 10.2193 18.4454L10.7707 18.2918C10.779 18.2894 10.7864 18.2843 10.7916 18.2774C10.7969 18.2704 10.7997 18.262 10.7997 18.2533C10.7997 18.2446 10.7969 18.2361 10.7916 18.2291C10.7864 18.2222 10.779 18.2171 10.7707 18.2148L10.2193 18.0612C10.2127 18.0593 10.2067 18.0557 10.2018 18.0509C10.197 18.046 10.1935 18.04 10.1916 18.0335L10.0382 17.4813C10.0358 17.4729 10.0307 17.4656 10.0238 17.4603C10.0169 17.4551 10.0084 17.4523 9.99971 17.4523C9.99101 17.4523 9.98256 17.4551 9.97561 17.4603C9.96868 17.4656 9.96363 17.4729 9.96124 17.4813L9.80786 18.0335C9.80596 18.04 9.80243 18.046 9.79757 18.0509C9.79274 18.0557 9.78674 18.0593 9.78015 18.0612L9.22874 18.2148C9.22037 18.2171 9.21301 18.2222 9.20778 18.2291C9.20254 18.2361 9.19971 18.2446 9.19971 18.2533C9.19971 18.262 9.20254 18.2704 9.20778 18.2774C9.21301 18.2843 9.22037 18.2894 9.22874 18.2918Z" fill="url(#paint0_linear_2037_339)"/>
<path d="M26.2134 25.5436L27.6487 24.1766C28.4419 25.1069 29.6695 25.6576 31.2559 25.6576C33.201 25.6576 34.3153 25.0879 34.4852 24.1195C34.7685 22.6005 32.0491 22.0498 31.0481 21.7461C28.8575 21.0815 26.4211 20.189 26.4211 17.7206C26.4211 15.5559 28.4608 13.6761 31.6712 13.7141C33.6353 13.7331 35.2029 14.5875 36.3361 15.8218L34.9008 17.1889C34.221 16.3724 33.0689 15.7268 31.6712 15.7078C29.6316 15.6888 28.4041 16.5813 28.4231 17.8155C28.4419 18.9358 30.0472 19.4295 31.8223 19.9991C34.032 20.6826 36.4116 21.4803 36.506 23.6448C36.6004 25.9234 34.5608 27.6514 31.2559 27.6514C29.1029 27.6514 27.3843 26.8539 26.2134 25.5436Z" fill="#38303F"/>
<path d="M46.9541 22.0309V27.5184H45.0655V22.2208C45.0655 20.246 44.4046 19.5245 43.4036 19.5245C41.3261 19.5245 40.0042 22.4107 40.0042 24.1767V27.5184H38.1156V16.0687C38.1156 15.6319 37.9455 15.556 37.6624 15.556H37.5679V13.847H38.55C39.4187 13.847 40.0042 14.4357 40.0042 15.3091V19.7903C40.7974 18.5561 42.0061 17.6827 43.6302 17.6637C45.802 17.6637 46.9541 19.1637 46.9541 22.0309Z" fill="#38303F"/>
<path d="M48.2686 22.6386C48.2686 19.7144 50.1759 17.6447 53.1977 17.6447C56.2194 17.6447 58.1268 19.7144 58.1268 22.6386C58.1268 25.5627 56.295 27.7083 53.16 27.7083C50.0627 27.7083 48.2686 25.5627 48.2686 22.6386ZM53.1977 25.8095C55.294 25.7906 56.2571 24.4613 56.2571 22.6386C56.2571 20.8157 55.1808 19.5435 53.1977 19.5435C51.2148 19.5435 50.1383 20.8157 50.1383 22.6386C50.1383 24.4613 51.1392 25.8285 53.1977 25.8095Z" fill="#38303F"/>
<path d="M68.6709 22.4679C68.6709 25.297 66.9334 27.6895 63.9305 27.7656C62.9674 27.7844 62.1175 27.5757 61.3243 27.139V31.772H59.4358V20.0563C59.4358 19.6196 59.2659 19.5436 58.9826 19.5436H58.8882V17.8347H59.8701C60.7389 17.8347 61.3243 18.4233 61.3243 19.2968V19.6576C62.0608 18.4993 63.1752 17.7018 64.7237 17.7018C67.3111 17.7018 68.6709 19.9424 68.6709 22.4679ZM61.3243 25.0693C61.9476 25.6578 63.0806 25.9236 63.9305 25.8477C65.8569 25.6959 66.8012 24.1768 66.8012 22.4489C66.8012 21.0058 66.1402 19.5816 64.4971 19.5816C62.1554 19.5816 61.3243 22.3539 61.3243 24.2528V25.0693Z" fill="#38303F"/>
<path d="M68.2036 13.847H70.2811L73.7749 25.8095H74.3038L77.7976 13.847H79.8751L75.8524 27.5184H72.2263L68.2036 13.847Z" fill="#063C6A"/>
<path d="M82.7077 16.9041H81.1968C81.0267 16.9041 80.9135 16.7902 80.9135 16.6193V15.6319C80.9135 15.461 81.0267 15.347 81.1968 15.347H82.7077C82.8776 15.347 82.991 15.461 82.991 15.6319V16.6193C82.991 16.7902 82.8776 16.9041 82.7077 16.9041ZM83.1609 19.2966V27.5184H81.2724V20.0561C81.2724 19.6194 81.1023 19.5434 80.8192 19.5434H80.7246V17.8345H81.7067C82.5755 17.8345 83.1609 18.4231 83.1609 19.2966Z" fill="#063C6A"/>
<path d="M84.51 24.7272C84.5288 22.6575 86.134 22.1259 87.7393 21.7463C88.8346 21.4993 90.0245 21.3284 90.9121 20.7777C90.5533 19.9423 89.8356 19.6195 88.6647 19.6195C87.5504 19.6195 86.9084 19.8284 85.794 20.2082V18.3093C86.9084 17.9296 87.5504 17.7207 88.6647 17.7207C91.3086 17.7207 93.084 19.0499 93.084 22.2968V25.297C93.084 25.7337 93.2539 25.8096 93.5372 25.8096H93.6315V27.5185H92.6496C91.7997 27.5185 91.2142 26.949 91.1954 26.1135C90.4777 27.0059 89.4391 27.6705 88.0793 27.7084C85.8129 27.7843 84.4909 26.5882 84.51 24.7272ZM91.1954 22.4107C90.5533 22.8286 89.3636 22.9614 88.3436 23.2272C87.3616 23.4931 86.4929 23.8538 86.4173 24.7084C86.3418 25.5059 87.0028 25.9805 88.3059 25.8286C90.0055 25.6197 91.1954 24.0818 91.1954 22.4107Z" fill="#063C6A"/>
<path d="M96.5437 20.6259C96.5437 23.4741 98.2244 25.6387 101.303 25.6387C102.889 25.6387 104.117 24.9931 104.91 24.0628L106.345 25.43C105.174 26.7401 103.456 27.6325 101.303 27.6325C97.1858 27.6325 94.5796 24.6135 94.5796 20.6259C94.5796 16.6384 97.1858 13.7142 101.303 13.7142C103.456 13.7142 105.174 14.5117 106.345 15.8219L104.91 17.1891C104.117 16.2586 102.889 15.708 101.303 15.708C98.2244 15.708 96.5437 17.7777 96.5437 20.6259Z" fill="#063C6A"/>
<path d="M107.305 24.7272C107.324 22.6575 108.93 22.1259 110.535 21.7463C111.63 21.4993 112.82 21.3284 113.708 20.7777C113.349 19.9423 112.631 19.6195 111.46 19.6195C110.346 19.6195 109.704 19.8284 108.59 20.2082V18.3093C109.704 17.9296 110.346 17.7207 111.46 17.7207C114.104 17.7207 115.88 19.0499 115.88 22.2968V25.297C115.88 25.7337 116.049 25.8096 116.333 25.8096H116.427V27.5185H115.445C114.595 27.5185 114.01 26.949 113.991 26.1135C113.273 27.0059 112.234 27.6705 110.875 27.7084C108.608 27.7843 107.287 26.5882 107.305 24.7272ZM113.991 22.4107C113.349 22.8286 112.159 22.9614 111.139 23.2272C110.157 23.4931 109.288 23.8538 109.213 24.7084C109.137 25.5059 109.798 25.9805 111.101 25.8286C112.801 25.6197 113.991 24.0818 113.991 22.4107Z" fill="#063C6A"/>
<path d="M120 25.6196V27.5184H119.906C118.357 27.5184 117.564 26.778 117.564 25.3349V13.847H119.453V24.9171C119.453 25.3538 119.623 25.6196 119.906 25.6196H120Z" fill="#063C6A"/>
</g>
<defs>
<linearGradient id="paint0_linear_2037_339" x1="2.15487" y1="10.0706" x2="12.6371" y2="32.8905" gradientUnits="userSpaceOnUse">
<stop offset="0.239014" stop-color="#0270EB"/>
<stop offset="1" stop-color="#063C6A"/>
</linearGradient>
<clipPath id="clip0_2037_339">
<rect width="120" height="33.2039" fill="white" transform="translate(0 0.898071)"/>
</clipPath>
</defs>
</svg>
