<svg xmlns="http://www.w3.org/2000/svg" xmlns:xlink="http://www.w3.org/1999/xlink" width="500" zoomAndPan="magnify" viewBox="0 0 375 374.999991" height="500" preserveAspectRatio="xMidYMid meet" version="1.2"><defs/><g id="d5a213b328"><g style="fill:#708238;fill-opacity:1;"><g transform="translate(143.489131, 241.260815)"><path style="stroke:none" d="M 5.78125 -138 L 5.78125 -140.5 L 60.515625 -140.5 C 67.710938 -140.5 74.75 -140.144531 81.625 -139.4375 C 88.5 -138.738281 94.757812 -137.226562 100.40625 -134.90625 C 106.0625 -132.59375 110.5625 -129.15625 113.90625 -124.59375 C 117.25 -120.039062 118.921875 -113.910156 118.921875 -106.203125 C 118.921875 -98.617188 117.34375 -92.515625 114.1875 -87.890625 C 111.039062 -83.265625 106.929688 -79.726562 101.859375 -77.28125 C 96.785156 -74.84375 91.289062 -73.207031 85.375 -72.375 C 79.46875 -71.539062 73.6875 -71.125 68.03125 -71.125 L 40.28125 -71.125 L 40.28125 -12.90625 C 40.28125 -8.539062 41.367188 -5.710938 43.546875 -4.421875 C 45.734375 -3.140625 49.078125 -2.5 53.578125 -2.5 L 53.578125 0 L 5.78125 0 L 5.78125 -2.5 C 10.28125 -2.5 13.617188 -3.140625 15.796875 -4.421875 C 17.984375 -5.710938 19.078125 -8.539062 19.078125 -12.90625 L 19.078125 -127.59375 C 19.078125 -132.082031 17.984375 -134.9375 15.796875 -136.15625 C 13.617188 -137.382812 10.28125 -138 5.78125 -138 Z M 60.515625 -138 L 40.28125 -138 L 40.28125 -73.625 L 60.90625 -73.625 C 69.382812 -73.625 76.320312 -74.488281 81.71875 -76.21875 C 87.113281 -77.957031 91.128906 -81.039062 93.765625 -85.46875 C 96.398438 -89.90625 97.71875 -96.046875 97.71875 -103.890625 C 97.71875 -126.628906 85.316406 -138 60.515625 -138 Z M 60.515625 -138 "/></g></g><g style="fill:#ffffff;fill-opacity:1;"><g transform="translate(79.530863, 230.074446)"><path style="stroke:none" d="M 74.859375 11.835938 C 60.265625 11.835938 47.289062 8.496094 35.933594 1.808594 C 24.554688 -4.886719 15.664062 -14.097656 9.265625 -25.816406 C 2.933594 -37.414062 -0.234375 -50.582031 -0.234375 -65.316406 C -0.234375 -76.472656 1.429688 -86.976562 4.761719 -96.832031 C 8.148438 -106.855469 13.113281 -115.703125 19.648438 -123.375 C 26.304688 -131.1875 34.363281 -137.261719 43.820312 -141.59375 C 53.261719 -145.917969 63.855469 -148.082031 75.609375 -148.082031 C 82.664062 -148.082031 88.695312 -147.222656 93.699219 -145.5 C 98.089844 -143.992188 101.851562 -142.453125 104.976562 -140.890625 C 106.371094 -140.195312 107.308594 -139.847656 107.796875 -139.847656 C 106.851562 -139.847656 106.101562 -139.644531 105.550781 -139.246094 C 104.457031 -138.457031 103.722656 -137.507812 103.347656 -136.402344 C 103.289062 -136.230469 103.253906 -136.097656 103.238281 -136.003906 C 103.253906 -136.09375 103.257812 -136.238281 103.257812 -136.429688 L 103.257812 -146.023438 L 124.875 -146.023438 L 124.875 -79.863281 L 103.445312 -79.863281 L 103.445312 -89.457031 C 103.445312 -102.703125 101.097656 -111.902344 96.402344 -117.058594 C 91.941406 -121.957031 85.570312 -124.40625 77.292969 -124.40625 C 70.839844 -124.40625 64.980469 -122.683594 59.710938 -119.234375 C 54.378906 -115.742188 50.035156 -110.394531 46.6875 -103.191406 C 43.167969 -95.617188 41.40625 -85.984375 41.40625 -74.296875 C 41.40625 -62.582031 43.226562 -52.285156 46.867188 -43.40625 C 50.289062 -35.058594 55.15625 -28.609375 61.46875 -24.066406 C 67.59375 -19.65625 74.988281 -17.453125 83.65625 -17.453125 C 90.648438 -17.453125 96.230469 -18.882812 100.394531 -21.75 C 104.667969 -24.691406 107.816406 -28.523438 109.832031 -33.242188 C 112.0625 -38.464844 113.175781 -44.101562 113.175781 -50.15625 L 113.175781 -59.746094 L 134.792969 -59.746094 L 134.792969 -50.15625 C 134.792969 -42.699219 133.683594 -35.390625 131.460938 -28.226562 C 129.160156 -20.804688 125.558594 -14.085938 120.660156 -8.070312 C 115.613281 -1.878906 109.277344 2.992188 101.644531 6.542969 C 94.0625 10.074219 85.132812 11.835938 74.859375 11.835938 Z M 74.859375 -7.347656 C 82.300781 -7.347656 88.53125 -8.511719 93.550781 -10.847656 C 98.519531 -13.160156 102.597656 -16.273438 105.789062 -20.1875 C 109.121094 -24.28125 111.574219 -28.851562 113.140625 -33.90625 C 114.785156 -39.21875 115.609375 -44.636719 115.609375 -50.15625 L 125.203125 -50.15625 L 125.203125 -40.5625 L 122.769531 -40.5625 L 122.769531 -50.15625 L 132.359375 -50.15625 C 132.359375 -41.484375 130.730469 -33.335938 127.472656 -25.707031 C 124 -17.578125 118.597656 -10.992188 111.269531 -5.949219 C 103.832031 -0.828125 94.625 1.730469 83.65625 1.730469 C 70.863281 1.730469 59.730469 -1.679688 50.257812 -8.496094 C 40.976562 -15.183594 33.929688 -24.394531 29.117188 -36.128906 C 24.519531 -47.339844 22.222656 -60.0625 22.222656 -74.296875 C 22.222656 -88.8125 24.578125 -101.136719 29.292969 -111.277344 C 34.179688 -121.792969 40.816406 -129.792969 49.207031 -135.285156 C 57.664062 -140.820312 67.027344 -143.589844 77.292969 -143.589844 C 91.222656 -143.589844 102.320312 -139.050781 110.585938 -129.976562 C 118.613281 -121.160156 122.628906 -107.652344 122.628906 -89.457031 L 113.035156 -89.457031 L 113.035156 -99.046875 L 115.28125 -99.046875 L 115.28125 -89.457031 L 105.691406 -89.457031 L 105.691406 -136.429688 L 115.28125 -136.429688 L 115.28125 -126.839844 L 112.851562 -126.839844 L 112.851562 -136.429688 L 122.441406 -136.429688 C 122.441406 -130.664062 120.554688 -126.421875 116.78125 -123.695312 C 113.980469 -121.675781 110.988281 -120.664062 107.796875 -120.664062 C 104.292969 -120.664062 100.492188 -121.6875 96.394531 -123.734375 C 94.03125 -124.917969 91.050781 -126.125 87.460938 -127.359375 C 84.480469 -128.386719 80.527344 -128.898438 75.609375 -128.898438 C 66.648438 -128.898438 58.714844 -127.316406 51.808594 -124.15625 C 44.925781 -121 39.070312 -116.59375 34.25 -110.933594 C 29.308594 -105.132812 25.535156 -98.382812 22.933594 -90.6875 C 20.277344 -82.828125 18.949219 -74.367188 18.949219 -65.316406 C 18.949219 -53.847656 21.332031 -43.742188 26.105469 -35.007812 C 30.808594 -26.390625 37.328125 -19.628906 45.664062 -14.722656 C 54.019531 -9.804688 63.75 -7.347656 74.859375 -7.347656 Z M 74.859375 -7.347656 "/></g></g><g style="fill:#042249;fill-opacity:1;"><g transform="translate(79.530863, 230.074446)"><path style="stroke:none" d="M 74.859375 2.25 C 62.003906 2.25 50.648438 -0.648438 40.796875 -6.453125 C 30.941406 -12.253906 23.238281 -20.238281 17.6875 -30.40625 C 12.132812 -40.570312 9.359375 -52.207031 9.359375 -65.3125 C 9.359375 -75.414062 10.851562 -84.894531 13.84375 -93.75 C 16.84375 -102.613281 21.210938 -110.410156 26.953125 -117.140625 C 32.691406 -123.878906 39.644531 -129.117188 47.8125 -132.859375 C 55.988281 -136.609375 65.253906 -138.484375 75.609375 -138.484375 C 81.597656 -138.484375 86.585938 -137.796875 90.578125 -136.421875 C 94.566406 -135.046875 97.929688 -133.671875 100.671875 -132.296875 C 103.421875 -130.929688 105.796875 -130.25 107.796875 -130.25 C 108.921875 -130.25 110.039062 -130.65625 111.15625 -131.46875 C 112.28125 -132.28125 112.84375 -133.929688 112.84375 -136.421875 L 115.28125 -136.421875 L 115.28125 -89.453125 L 113.03125 -89.453125 C 113.03125 -105.171875 109.847656 -116.523438 103.484375 -123.515625 C 97.117188 -130.503906 88.390625 -134 77.296875 -134 C 68.929688 -134 61.316406 -131.75 54.453125 -127.25 C 47.597656 -122.757812 42.109375 -116.082031 37.984375 -107.21875 C 33.867188 -98.363281 31.8125 -87.390625 31.8125 -74.296875 C 31.8125 -61.316406 33.867188 -49.804688 37.984375 -39.765625 C 42.109375 -29.722656 48.066406 -21.894531 55.859375 -16.28125 C 63.660156 -10.664062 72.925781 -7.859375 83.65625 -7.859375 C 92.632812 -7.859375 100.023438 -9.851562 105.828125 -13.84375 C 111.628906 -17.84375 115.898438 -23.050781 118.640625 -29.46875 C 121.390625 -35.894531 122.765625 -42.789062 122.765625 -50.15625 L 125.203125 -50.15625 C 125.203125 -43.664062 124.234375 -37.300781 122.296875 -31.0625 C 120.359375 -24.820312 117.332031 -19.175781 113.21875 -14.125 C 109.101562 -9.070312 103.894531 -5.078125 97.59375 -2.140625 C 91.289062 0.785156 83.710938 2.25 74.859375 2.25 Z M 74.859375 2.25 "/></g></g></g></svg>