<svg width="140" height="232" viewBox="0 0 140 232" fill="none" xmlns="http://www.w3.org/2000/svg">
<path d="M50.7439 7.80598C55.7448 2.80789 62.5276 0 69.6 0C76.6724 0 83.4552 2.80789 88.4561 7.80598C93.4571 12.8041 96.2666 19.5829 96.2666 26.6513C96.2666 33.7197 93.4571 40.4985 88.4561 45.4966C83.4552 50.4947 76.6724 53.3026 69.6 53.3026C62.5276 53.3026 55.7448 50.4947 50.7439 45.4966C45.7429 40.4985 42.9334 33.7197 42.9334 26.6513C42.9334 19.5829 45.7429 12.8041 50.7439 7.80598Z" fill="url(#paint0_linear_591_54)"/>
<path d="M20.4998 83.4059C47.833 54.2854 92.167 54.2854 119.5 83.4059C146.833 112.526 146.833 159.759 119.5 188.879L119.433 188.949L82.7066 226.558C79.2901 230.052 74.7368 232.003 70.0009 232C65.2648 231.997 60.7129 230.042 57.2998 226.544L43.9269 212.859C43.9904 212.82 44.0538 212.78 44.1174 212.74C46.4569 211.281 48.8759 209.91 49.9662 209.499C57.0891 206.815 61.1953 204.084 63.4986 201.266C65.8053 198.444 66.2961 195.544 66.2129 192.545C66.1713 191.047 65.9869 189.522 65.8137 187.971C65.6404 186.419 65.4782 184.839 65.4801 183.225C65.4838 179.999 66.1417 176.633 68.6757 173.087C69.2476 172.287 70.2624 171.497 71.5704 170.703C72.8766 169.911 74.4659 169.119 76.1787 168.31C79.601 166.695 83.5177 165.013 86.6149 163.133C88.164 162.192 89.5141 161.198 90.4977 160.135C91.4812 159.071 92.1045 157.93 92.1866 156.697C92.2687 155.462 91.8077 154.15 90.6581 152.747C89.5093 151.345 87.6686 149.847 84.9807 148.235C84.6791 148.054 84.2692 147.899 83.7803 147.747C83.2903 147.595 82.7138 147.445 82.0768 147.278C80.8008 146.943 79.2745 146.536 77.6763 145.897C74.5955 144.665 71.2506 142.572 68.9354 138.474L73.654 131.009L73.7169 130.91L73.7989 130.993L75.5827 132.776L81.1207 124.013L81.1954 123.895L81.2765 124.009L92.4127 139.775L94.2009 137.989L94.2666 137.922L94.3322 137.989L96.4085 140.064C96.5775 138.772 96.6664 137.462 96.6664 136.143C96.6664 128.608 93.8571 121.381 88.8562 116.053C83.8553 110.725 77.0723 107.732 70 107.732C62.9277 107.732 56.1447 110.725 51.1438 116.053C46.1429 121.381 43.3336 128.608 43.3336 136.143C43.3336 139.657 43.9448 143.104 45.1045 146.323L58.2568 127.74L58.3288 127.639L58.4063 127.736L67.076 138.464L67.0688 138.466L67.1162 138.563C67.7292 139.788 69.0214 144.17 73.2202 146.531C75.0876 147.581 77.0443 148.686 78.6734 149.813C80.3059 150.942 81.5938 152.082 82.1424 153.195C82.4149 153.748 82.5026 154.29 82.3639 154.82C82.2247 155.351 81.8543 155.884 81.1881 156.412C79.8521 157.469 77.3498 158.486 73.2457 159.418C71.4969 159.826 69.6216 160.224 67.7059 160.634C65.7904 161.044 63.8335 161.465 61.9218 161.918C58.0998 162.825 54.4509 163.862 51.6643 165.198C48.8831 166.531 46.9304 168.176 46.5547 170.315C46.1788 172.456 47.3901 175.041 50.8029 178.231C51.7949 179.158 52.1647 180.048 52.0753 180.911C51.9851 181.781 51.4274 182.649 50.5067 183.527C48.6646 185.281 45.4224 187.023 41.8251 188.828C38.234 190.63 34.2943 192.494 31.08 194.49C29.9699 195.179 28.9456 195.886 28.0494 196.612L20.5673 188.957L20.4998 188.879C-6.83334 159.759 -6.8332 112.526 20.4998 83.4059Z" fill="url(#paint1_linear_591_54)"/>
<path d="M64.6032 121.533L68.4632 122.606C68.5093 122.619 68.5512 122.644 68.5851 122.677C68.619 122.711 68.6438 122.753 68.6571 122.799L69.7307 126.657C69.7474 126.716 69.7827 126.767 69.8313 126.804C69.8799 126.84 69.9391 126.86 70 126.86C70.0609 126.86 70.1201 126.84 70.1687 126.804C70.2173 126.767 70.2526 126.716 70.2693 126.657L71.3429 122.799C71.3562 122.753 71.381 122.711 71.4149 122.677C71.4488 122.644 71.4907 122.619 71.5368 122.606L75.3968 121.533C75.4554 121.516 75.5068 121.481 75.5435 121.432C75.5802 121.383 75.6 121.324 75.6 121.263C75.6 121.203 75.5802 121.143 75.5435 121.095C75.5068 121.046 75.4554 121.011 75.3968 120.994L71.5368 119.921C71.4907 119.908 71.4488 119.883 71.4149 119.849C71.381 119.815 71.3562 119.773 71.3429 119.727L70.2693 115.87C70.2526 115.811 70.2173 115.76 70.1687 115.723C70.1201 115.686 70.0609 115.667 70 115.667C69.9391 115.667 69.8799 115.686 69.8313 115.723C69.7827 115.76 69.7474 115.811 69.7307 115.87L68.6571 119.727C68.6438 119.773 68.619 119.815 68.5851 119.849C68.5512 119.883 68.5093 119.908 68.4632 119.921L64.6032 120.994C64.5446 121.011 64.4932 121.046 64.4565 121.095C64.4199 121.143 64.4 121.203 64.4 121.263C64.4 121.324 64.4199 121.383 64.4565 121.432C64.4932 121.481 64.5446 121.516 64.6032 121.533Z" fill="url(#paint2_linear_591_54)"/>
<defs>
<linearGradient id="paint0_linear_591_54" x1="15.0862" y1="64.0897" x2="88.2392" y2="223.637" gradientUnits="userSpaceOnUse">
<stop offset="0.239014" stop-color="#0270EB"/>
<stop offset="1" stop-color="#063C6A"/>
</linearGradient>
<linearGradient id="paint1_linear_591_54" x1="15.0862" y1="64.0897" x2="88.2392" y2="223.637" gradientUnits="userSpaceOnUse">
<stop offset="0.239014" stop-color="#0270EB"/>
<stop offset="1" stop-color="#063C6A"/>
</linearGradient>
<linearGradient id="paint2_linear_591_54" x1="15.0862" y1="64.0897" x2="88.2392" y2="223.637" gradientUnits="userSpaceOnUse">
<stop offset="0.239014" stop-color="#0270EB"/>
<stop offset="1" stop-color="#063C6A"/>
</linearGradient>
</defs>
</svg>
